FILE "NHL '94 (1993)(Electronic Arts)(US).img" BINARY
  TRACK 01 MODE1/2352
    INDEX 01 00:00:00
  TRACK 02 AUDIO
    PREGAP 00:02:00
    INDEX 01 19:46:65
  TRACK 03 AUDIO
    INDEX 00 21:27:29
    INDEX 01 21:29:34
  TRACK 04 AUDIO
    INDEX 00 22:56:03
    INDEX 01 22:58:06
  TRACK 05 AUDIO
    INDEX 00 24:04:40
    INDEX 01 24:06:48
  TRACK 06 AUDIO
    INDEX 00 25:19:42
    INDEX 01 25:21:37
  TRACK 07 AUDIO
    INDEX 00 25:29:63
    INDEX 01 25:31:63
  TRACK 08 AUDIO
    INDEX 00 25:53:37
    INDEX 01 25:55:34
  TRACK 09 AUDIO
    INDEX 00 26:16:74
    INDEX 01 26:19:03
  TRACK 10 AUDIO
    INDEX 00 26:43:33
    INDEX 01 26:45:30
  TRACK 11 AUDIO
    INDEX 00 27:00:18
    INDEX 01 27:02:16
  TRACK 12 AUDIO
    INDEX 00 27:27:20
    INDEX 01 27:29:25
  TRACK 13 AUDIO
    INDEX 00 27:49:02
    INDEX 01 27:51:04
  TRACK 14 AUDIO
    INDEX 00 28:13:03
    INDEX 01 28:15:00
  TRACK 15 AUDIO
    INDEX 00 28:37:69
    INDEX 01 28:39:68
  TRACK 16 AUDIO
    INDEX 00 29:02:27
    INDEX 01 29:04:18
  TRACK 17 AUDIO
    INDEX 00 29:20:50
    INDEX 01 29:22:52
  TRACK 18 AUDIO
    INDEX 00 29:36:11
    INDEX 01 29:38:16
  TRACK 19 AUDIO
    INDEX 00 30:01:10
    INDEX 01 30:03:18
  TRACK 20 AUDIO
    INDEX 00 30:29:24
    INDEX 01 30:31:17
  TRACK 21 AUDIO
    INDEX 00 30:44:35
    INDEX 01 30:46:36
  TRACK 22 AUDIO
    INDEX 00 31:05:40
    INDEX 01 31:07:44
  TRACK 23 AUDIO
    INDEX 00 31:28:41
    INDEX 01 31:30:36
  TRACK 24 AUDIO
    INDEX 00 31:59:31
    INDEX 01 32:01:34
  TRACK 25 AUDIO
    INDEX 00 32:27:07
    INDEX 01 32:29:05
  TRACK 26 AUDIO
    INDEX 00 32:49:05
    INDEX 01 32:51:07
  TRACK 27 AUDIO
    INDEX 00 33:09:34
    INDEX 01 33:11:29
  TRACK 28 AUDIO
    INDEX 00 33:32:28
    INDEX 01 33:34:35
  TRACK 29 AUDIO
    INDEX 00 33:59:30
    INDEX 01 34:01:37
  TRACK 30 AUDIO
    INDEX 00 34:21:43
    INDEX 01 34:23:36
  TRACK 31 AUDIO
    INDEX 00 34:47:48
    INDEX 01 34:49:51
  TRACK 32 AUDIO
    INDEX 00 35:10:45
    INDEX 01 35:12:53
  TRACK 33 AUDIO
    INDEX 00 35:36:57
    INDEX 01 35:38:55
  TRACK 34 AUDIO
    INDEX 00 35:54:03
    INDEX 01 35:56:10
  TRACK 35 AUDIO
    INDEX 00 36:13:49
    INDEX 01 36:15:53
  TRACK 36 AUDIO
    INDEX 00 36:31:70
    INDEX 01 36:33:65
  TRACK 37 AUDIO
    INDEX 00 36:50:13
    INDEX 01 36:52:13
  TRACK 38 AUDIO
    INDEX 00 37:04:67
    INDEX 01 37:06:74
  TRACK 39 AUDIO
    INDEX 00 37:23:68
    INDEX 01 37:26:01
  TRACK 40 AUDIO
    INDEX 00 37:48:44
    INDEX 01 37:50:48
  TRACK 41 AUDIO
    INDEX 00 38:10:04
    INDEX 01 38:12:03
  TRACK 42 AUDIO
    INDEX 00 38:32:02
    INDEX 01 38:34:05
  TRACK 43 AUDIO
    INDEX 00 38:52:54
    INDEX 01 38:54:61
  TRACK 44 AUDIO
    INDEX 00 39:15:48
    INDEX 01 39:17:52
  TRACK 45 AUDIO
    INDEX 00 39:36:42
    INDEX 01 39:38:40
  TRACK 46 AUDIO
    INDEX 00 39:54:08
    INDEX 01 39:56:05
  TRACK 47 AUDIO
    INDEX 00 40:12:66
    INDEX 01 40:14:74
  TRACK 48 AUDIO
    INDEX 00 40:41:03
    INDEX 01 40:43:03
  TRACK 49 AUDIO
    INDEX 00 40:56:31
    INDEX 01 40:58:29
  TRACK 50 AUDIO
    INDEX 00 41:11:72
    INDEX 01 41:13:71
  TRACK 51 AUDIO
    INDEX 00 41:35:50
    INDEX 01 41:37:53
  TRACK 52 AUDIO
    INDEX 00 41:54:24
    INDEX 01 41:56:26
  TRACK 53 AUDIO
    INDEX 00 42:13:06
    INDEX 01 42:15:12
  TRACK 54 AUDIO
    INDEX 00 42:40:01
    INDEX 01 42:42:00
  TRACK 55 AUDIO
    INDEX 00 43:06:56
    INDEX 01 43:08:50
  TRACK 56 AUDIO
    INDEX 00 43:33:17
    INDEX 01 43:35:25
  TRACK 57 AUDIO
    INDEX 00 43:58:08
    INDEX 01 44:00:03
  TRACK 58 AUDIO
    INDEX 00 44:30:08
    INDEX 01 44:32:17
  TRACK 59 AUDIO
    INDEX 00 45:01:69
    INDEX 01 45:03:74
  TRACK 60 AUDIO
    INDEX 00 45:25:05
    INDEX 01 45:27:11
  TRACK 61 AUDIO
    INDEX 00 46:00:17
    INDEX 01 46:02:18
  TRACK 62 AUDIO
    INDEX 00 46:28:25
    INDEX 01 46:30:20
  TRACK 63 AUDIO
    INDEX 00 46:50:68
    INDEX 01 46:52:74
  TRACK 64 AUDIO
    INDEX 00 47:19:71
    INDEX 01 47:22:01
  TRACK 65 AUDIO
    INDEX 00 47:38:63
    INDEX 01 47:40:59
  TRACK 66 AUDIO
    INDEX 00 47:55:52
    INDEX 01 47:57:59
  TRACK 67 AUDIO
    INDEX 00 48:10:32
    INDEX 01 48:12:27
  TRACK 68 AUDIO
    INDEX 00 48:31:06
    INDEX 01 48:33:03
  TRACK 69 AUDIO
    INDEX 00 48:49:56
    INDEX 01 48:51:60
  TRACK 70 AUDIO
    INDEX 00 49:03:65
    INDEX 01 49:05:67
  TRACK 71 AUDIO
    INDEX 00 49:21:16
    INDEX 01 49:23:10
  TRACK 72 AUDIO
    INDEX 00 49:35:56
    INDEX 01 49:37:50
  TRACK 73 AUDIO
    INDEX 00 49:52:14
    INDEX 01 49:54:22
  TRACK 74 AUDIO
    INDEX 00 50:21:22
    INDEX 01 50:23:21
  TRACK 75 AUDIO
    INDEX 00 50:44:02
    INDEX 01 50:46:09
  TRACK 76 AUDIO
    INDEX 00 51:14:48
    INDEX 01 51:16:44
  TRACK 77 AUDIO
    INDEX 00 51:32:47
    INDEX 01 51:34:46
  TRACK 78 AUDIO
    INDEX 00 51:57:04
    INDEX 01 51:59:08
  TRACK 79 AUDIO
    INDEX 00 52:19:59
    INDEX 01 52:21:64
